# xmcd
#
# Track frame offsets:
#	150
#	15619
#	34307
#	51446
#	69150
#	94956
#	111313
#	128350
#	153641
#	169139
#	189276
#	201996
#
# Disc length: 3017 seconds
#
# Revision: 2
# Processed by: cddbd v1.5.2PL0 Copyright (c) Steve Scherf et al.
# Submitted via: EasyCDDAExtractor 2011.0.0.0
#
DISCID=a20bc70c
DTITLE=Various Artist - 찬양과 경배 - 축복 3
DYEAR=2001
DGENRE=CCM
TTITLE0=러브 - 축복합니다
TTITLE1=좋은씨앗 - 은혜와 이슬
TTITLE2=하은 - 주님은 너를 사랑해
TTITLE3=박정현 - FRIENDS
TTITLE4=채한성 - 우리 이젠
TTITLE5=옹기장이 - 그 이름의 승리
TTITLE6=다윗과 요나단 - 요한의 아들 시몬아
TTITLE7=송정미 외 - 빛 전하라
TTITLE8=냉수 한 그릇 - 이사 갈 준비
TTITLE9=최승원 - 오 신실하신 주
TTITLE10=김수지 - 나를 사셨네
TTITLE11=줄리어드트리오 - 내 주를 가까이
EXTD=
EXTT0=
EXTT1=
EXTT2=
EXTT3=
EXTT4=
EXTT5=
EXTT6=
EXTT7=
EXTT8=
EXTT9=
EXTT10=
EXTT11=
PLAYORDER=
